<?xml version="1.0" encoding="UTF-8" standalone="no"?>
<!DOCTYPE svg PUBLIC "-//W3C//DTD SVG 1.1//EN" "http://www.w3.org/Graphics/SVG/1.1/DTD/svg11.dtd">
<svg width="100%" height="100%" viewBox="0 0 1080 1080" version="1.1" xmlns="http://www.w3.org/2000/svg" xmlns:xlink="http://www.w3.org/1999/xlink" xml:space="preserve" xmlns:serif="http://www.serif.com/" style="fill-rule:evenodd;clip-rule:evenodd;stroke-linecap:round;stroke-linejoin:round;stroke-miterlimit:1.5;">
    <g transform="matrix(1,0,0,1,0.229062,-13.973534)">
        <path d="M682.395,540L795.204,540.372" style="fill:none;stroke:black;stroke-width:16.67px;"/>
    </g>
    <g transform="matrix(1,0,0,1,0.229062,-13.973534)">
        <path d="M589.599,635.589C627.976,635.601 713.265,635.6 713.265,635.6C713.265,635.6 757.428,667.349 779.181,685.452" style="fill:none;stroke:black;stroke-width:16.67px;"/>
    </g>
    <g transform="matrix(1,0,0,1,0.229062,-13.973534)">
        <path d="M680.705,511.522L738.799,481.452L765.29,395.482" style="fill:none;stroke:black;stroke-width:16.67px;"/>
    </g>
    <g transform="matrix(1,0,0,1,-32.160423,-11.801489)">
        <ellipse cx="672.626" cy="741.09" rx="7.714" ry="8.37" style="fill:rgb(247,63,63);stroke:black;stroke-width:16.67px;"/>
    </g>
    <g transform="matrix(1,0,0,1,17.711532,-17.598356)">
        <ellipse cx="672.626" cy="741.09" rx="7.714" ry="8.37" style="fill:rgb(247,63,63);stroke:black;stroke-width:16.67px;"/>
    </g>
    <g transform="matrix(1.408508,0,0,1.439213,-161.056152,-389.836816)">
        <ellipse cx="672.626" cy="741.09" rx="7.714" ry="8.37" style="stroke:black;stroke-width:11.7px;"/>
    </g>
    <g transform="matrix(1.408508,0,0,1.439213,-139.326176,-540.559884)">
        <ellipse cx="672.626" cy="741.09" rx="7.714" ry="8.37" style="stroke:black;stroke-width:11.7px;"/>
    </g>
    <g transform="matrix(1.408508,0,0,1.439213,-181.879834,-685.078181)">
        <ellipse cx="672.626" cy="741.09" rx="7.714" ry="8.37" style="stroke:black;stroke-width:11.7px;"/>
    </g>
    <g transform="matrix(1,0,0,1,-38.282024,-366.532753)">
        <ellipse cx="672.626" cy="741.09" rx="7.714" ry="8.37" style="fill:rgb(247,63,63);stroke:black;stroke-width:16.67px;"/>
    </g>
    <g transform="matrix(1,0,0,1,-30.568195,-415.734491)">
        <ellipse cx="672.626" cy="741.09" rx="7.714" ry="8.37" style="fill:rgb(247,63,63);stroke:black;stroke-width:16.67px;"/>
    </g>
    <g transform="matrix(1,0,0,1,0.229062,-13.973534)">
        <path d="M579.771,467.392L579.771,303.522L647.95,303.525C647.95,303.525 693.412,309.129 710.215,349.065C726.932,388.795 712.6,435.034 712.6,435.034C699.365,435.028 633.189,435 633.189,435L633.2,390" style="fill:none;stroke:black;stroke-width:16.67px;"/>
    </g>
    <g transform="matrix(1,0,0,1,0.229062,-13.973534)">
        <path d="M579.771,469.674C579.771,469.674 638.766,480.003 640.071,546.974C641.273,608.694 579.771,627.774 579.771,627.774L579.771,804.42L709.444,804.425C709.444,804.425 737.622,770.535 734.322,729.095C731.39,692.267 697.774,672.758 697.774,672.758L639.367,670.8L639.4,735.376" style="fill:none;stroke:black;stroke-width:16.67px;"/>
    </g>
    <g transform="matrix(1,0,0,1,0.229062,-13.973534)">
        <path d="M649.214,481.452C649.214,481.452 678.94,495.554 680.662,540C681.972,573.784 652.661,599.292 652.661,599.292" style="fill:none;stroke:black;stroke-width:16.67px;"/>
    </g>
    <g transform="matrix(1,0,0,1,-1.154868,-5.579226)">
        <path d="M501.755,297.538C501.755,297.538 483.545,285.1 458.864,288.86C440.103,291.718 415.192,313.214 415.192,313.214L413.037,313.566C413.037,313.566 352.411,314.931 325.572,361.61C298.383,408.898 320.877,460.221 320.877,460.221C320.877,460.221 276.472,484.394 279.387,554.87C282.212,623.193 328.41,638.45 328.41,638.45C328.41,638.45 308.313,681.528 337.311,723.799C356.341,751.541 398.492,751.646 398.492,751.646C398.492,751.646 399.782,785.149 438.192,797.048C466.852,805.926 501.831,802.254 501.831,802.254L501.8,619.363C501.8,619.363 438.494,584.686 441.455,538.627C441.084,475.852 501.755,461.279 501.755,461.279L501.755,297.538Z" style="stroke:black;stroke-width:16.67px;"/>
    </g>
    <g transform="matrix(1,0,0,1,0.229062,-13.973534)">
        <path d="M690.06,797.879C690.169,779.744 690.06,743.262 690.06,743.262" style="fill:none;stroke:black;stroke-width:16.67px;"/>
    </g>
    <g transform="matrix(0.97524,-0.001793,-0.001793,0.99987,15.106423,-12.895909)">
        <path d="M584.867,338.153L637.226,339.438" style="fill:none;stroke:black;stroke-width:16.91px;"/>
    </g>
    <g transform="matrix(0.579443,0,0,0.579443,461.976277,149.758785)">
        <g transform="matrix(1,0,0,1.085821,-12.572637,-74.131374)">
            <path d="M120.425,689.862C101.622,680.717 88.757,662.257 88.757,640.993C88.757,610.648 114.956,586.012 147.226,586.012C179.495,586.012 205.694,610.648 205.694,640.993C205.694,662.257 192.83,680.717 174.027,689.862" style="stroke:black;stroke-width:20.67px;"/>
        </g>
        <g transform="matrix(0.833872,0,0,0.84128,22.863616,88.917225)">
            <path d="M166.201,696.579L166.201,732.401L101.92,732.401L101.92,696.579" style="stroke:black;stroke-width:25.76px;"/>
        </g>
        <g transform="matrix(0.988201,0,0,0.352686,-3.220127,474.606882)">
            <path d="M166.107,728.241L166.107,735.9C166.107,738.014 165.495,739.73 164.74,739.73L114.298,739.73C113.544,739.73 112.932,738.014 112.932,735.9L112.932,728.241C112.932,726.128 113.544,724.412 114.298,724.412L164.74,724.412C165.495,724.412 166.107,726.128 166.107,728.241Z" style="stroke:black;stroke-width:19.38px;"/>
        </g>
        <g transform="matrix(0.653553,0,0,0.349394,43.469714,502.920223)">
            <path d="M166.107,728.241L166.107,735.9C166.107,738.014 165.19,739.73 164.06,739.73L114.979,739.73C113.849,739.73 112.932,738.014 112.932,735.9L112.932,728.241C112.932,726.128 113.849,724.412 114.979,724.412L164.06,724.412C165.19,724.412 166.107,726.128 166.107,728.241Z" style="stroke:black;stroke-width:27.44px;"/>
        </g>
        <g transform="matrix(0.188253,0,0,0.191426,108.388062,643.176587)">
            <path d="M166.107,728.241L166.107,735.9C166.107,738.014 164.362,739.73 162.213,739.73L116.826,739.73C114.677,739.73 112.932,738.014 112.932,735.9L112.932,728.241C112.932,726.128 114.677,724.412 116.826,724.412L162.213,724.412C164.362,724.412 166.107,726.128 166.107,728.241Z" style="stroke:black;stroke-width:75.75px;"/>
        </g>
    </g>
</svg>
